<?xml version="1.0" encoding="UTF-8" standalone="no"?>
<!DOCTYPE svg PUBLIC "-//W3C//DTD SVG 1.1//EN"
 "http://www.w3.org/Graphics/SVG/1.1/DTD/svg11.dtd">
<!-- Generated by graphviz version 2.38.0 (20140413.2041)
 -->
<!-- Title: %3 Pages: 1 -->
<svg width="252pt" height="218pt"
 viewBox="0.00 0.00 252.00 218.00" xmlns="http://www.w3.org/2000/svg" xmlns:xlink="http://www.w3.org/1999/xlink">
<g id="graph0" class="graph" transform="scale(1 1) rotate(0) translate(4 214)">
<title>%3</title>
<polygon fill="white" stroke="none" points="-4,4 -4,-214 248,-214 248,4 -4,4"/>
<!-- A -->
<g id="node1" class="node"><title>A</title>
<ellipse fill="none" stroke="black" cx="85" cy="-192" rx="31.3957" ry="18"/>
<text text-anchor="middle" x="85" y="-188.3" font-family="Times New Roman,serif" font-size="14.00">ucom</text>
</g>
<!-- B -->
<g id="node2" class="node"><title>B</title>
<ellipse fill="none" stroke="black" cx="27" cy="-105" rx="27" ry="18"/>
<text text-anchor="middle" x="27" y="-101.3" font-family="Times New Roman,serif" font-size="14.00">巨將</text>
</g>
<!-- A&#45;&gt;B -->
<g id="edge1" class="edge"><title>A&#45;&gt;B</title>
<path fill="none" stroke="black" d="M56.9999,-183.907C42.6733,-178.704 26.5001,-170.03 18,-156 13.694,-148.892 13.7767,-140.244 15.6009,-132.151"/>
<polygon fill="black" stroke="black" points="19.0195,-132.944 18.6436,-122.356 12.3346,-130.868 19.0195,-132.944"/>
<text text-anchor="middle" x="78.5" y="-144.8" font-family="Times New Roman,serif" font-size="14.00">head quarter in Taipei</text>
</g>
<!-- C -->
<g id="node3" class="node"><title>C</title>
<ellipse fill="none" stroke="black" cx="128" cy="-18" rx="31.3957" ry="18"/>
<text text-anchor="middle" x="128" y="-14.3" font-family="Times New Roman,serif" font-size="14.00">DaYa</text>
</g>
<!-- A&#45;&gt;C -->
<g id="edge2" class="edge"><title>A&#45;&gt;C</title>
<path fill="none" stroke="black" d="M110.233,-181.262C121.144,-175.64 132.811,-167.386 139,-156 157.775,-121.457 147.825,-74.6281 138.349,-45.6369"/>
<polygon fill="black" stroke="black" points="141.525,-44.1135 134.934,-35.8188 134.914,-46.4136 141.525,-44.1135"/>
<text text-anchor="middle" x="196.5" y="-101.3" font-family="Times New Roman,serif" font-size="14.00">multimedia is hot</text>
</g>
<!-- B&#45;&gt;C -->
<g id="edge3" class="edge"><title>B&#45;&gt;C</title>
<path fill="none" stroke="black" d="M43.2274,-90.3433C59.4512,-76.6896 84.6106,-55.5158 103.311,-39.7776"/>
<polygon fill="black" stroke="black" points="105.742,-42.3066 111.139,-33.1897 101.235,-36.9509 105.742,-42.3066"/>
<text text-anchor="middle" x="106" y="-57.8" font-family="Times New Roman,serif" font-size="14.00">競爭對手</text>
</g>
<!-- D -->
<g id="node4" class="node"><title>D</title>
<ellipse fill="none" stroke="black" cx="27" cy="-18" rx="27" ry="18"/>
<text text-anchor="middle" x="27" y="-14.3" font-family="Times New Roman,serif" font-size="14.00">D</text>
</g>
<!-- B&#45;&gt;D -->
<g id="edge4" class="edge"><title>B&#45;&gt;D</title>
<path fill="none" stroke="black" d="M27,-86.799C27,-75.1626 27,-59.5479 27,-46.2368"/>
<polygon fill="black" stroke="black" points="30.5001,-46.1754 27,-36.1754 23.5001,-46.1755 30.5001,-46.1754"/>
</g>
</g>
</svg>
