<?xml version="1.0" encoding="UTF-8" standalone="no"?>
<!DOCTYPE svg PUBLIC "-//W3C//DTD SVG 1.1//EN"
 "http://www.w3.org/Graphics/SVG/1.1/DTD/svg11.dtd">
<!-- Generated by graphviz version 2.38.0 (20140413.2041)
 -->
<!-- Title: %3 Pages: 1 -->
<svg width="160pt" height="260pt"
 viewBox="0.00 0.00 160.50 260.00" xmlns="http://www.w3.org/2000/svg" xmlns:xlink="http://www.w3.org/1999/xlink">
<g id="graph0" class="graph" transform="scale(1 1) rotate(0) translate(4 256)">
<title>%3</title>
<polygon fill="white" stroke="none" points="-4,4 -4,-256 156.498,-256 156.498,4 -4,4"/>
<!-- Apple -->
<g id="node1" class="node"><title>Apple</title>
<ellipse fill="none" stroke="black" cx="111.047" cy="-234" rx="32.4942" ry="18"/>
<text text-anchor="middle" x="111.047" y="-230.3" font-family="Times New Roman,serif" font-size="14.00">Apple</text>
</g>
<!-- Banana -->
<g id="node2" class="node"><title>Banana</title>
<ellipse fill="none" stroke="black" cx="37.0467" cy="-162" rx="37.0935" ry="18"/>
<text text-anchor="middle" x="37.0467" y="-158.3" font-family="Times New Roman,serif" font-size="14.00">Banana</text>
</g>
<!-- Apple&#45;&#45;Banana -->
<g id="edge1" class="edge"><title>Apple&#45;&#45;Banana</title>
<path fill="none" stroke="black" d="M91.3208,-219.503C77.538,-207.982 59.8813,-191.385 48.3362,-179.158"/>
</g>
<!-- Citron -->
<g id="node3" class="node"><title>Citron</title>
<ellipse fill="none" stroke="black" cx="102.047" cy="-18" rx="33.5952" ry="18"/>
<text text-anchor="middle" x="102.047" y="-14.3" font-family="Times New Roman,serif" font-size="14.00">Citron</text>
</g>
<!-- Apple&#45;&#45;Citron -->
<g id="edge2" class="edge"><title>Apple&#45;&#45;Citron</title>
<path fill="none" stroke="black" d="M113.629,-215.736C122.805,-185.884 144.708,-122.929 129.047,-72 124.927,-58.6037 116.142,-45.5552 109.355,-35.7574"/>
</g>
<!-- Kiwi -->
<g id="node4" class="node"><title>Kiwi</title>
<ellipse fill="none" stroke="black" cx="102.047" cy="-90" rx="27.0966" ry="18"/>
<text text-anchor="middle" x="102.047" y="-86.3" font-family="Times New Roman,serif" font-size="14.00">Kiwi</text>
</g>
<!-- Apple&#45;&#45;Kiwi -->
<g id="edge3" class="edge"><title>Apple&#45;&#45;Kiwi</title>
<path fill="none" stroke="black" d="M105.424,-216.153C100.789,-188.971 97.3991,-135.717 98.542,-108.268"/>
</g>
<!-- Banana&#45;&#45;Apple -->
<g id="edge4" class="edge"><title>Banana&#45;&#45;Apple</title>
<path fill="none" stroke="black" d="M57.6707,-177.25C71.2856,-188.708 88.3878,-204.81 99.6844,-216.765"/>
</g>
<!-- Banana&#45;&#45;Citron -->
<g id="edge5" class="edge"><title>Banana&#45;&#45;Citron</title>
<path fill="none" stroke="black" d="M34.4542,-143.714C36.8176,-125.362 45.3861,-95.7845 57.0467,-72 63.9019,-58.0174 74.0258,-43.4774 83.2651,-33.1715"/>
</g>
<!-- Banana&#45;&#45;Kiwi -->
<g id="edge6" class="edge"><title>Banana&#45;&#45;Kiwi</title>
<path fill="none" stroke="black" d="M46.6109,-144.411C56.6823,-132.12 72.1682,-115.595 84.3762,-104.197"/>
</g>
<!-- Citron&#45;&#45;Apple -->
<g id="edge7" class="edge"><title>Citron&#45;&#45;Apple</title>
<path fill="none" stroke="black" d="M122.231,-32.6158C132.132,-42.6598 142.47,-57.1152 147.047,-72 162.958,-123.742 140.097,-187.897 123.724,-217.14"/>
</g>
<!-- Citron&#45;&#45;Banana -->
<g id="edge8" class="edge"><title>Citron&#45;&#45;Banana</title>
<path fill="none" stroke="black" d="M96.6224,-35.9119C90.3143,-45.9659 81.3143,-59.2159 75.0467,-72 63.1715,-96.2222 54.5033,-126.453 47.4223,-144.716"/>
</g>
<!-- Citron&#45;&#45;Kiwi -->
<g id="edge9" class="edge"><title>Citron&#45;&#45;Kiwi</title>
<path fill="none" stroke="black" d="M107.926,-35.9562C109.1,-47.0274 109.087,-61.4141 107.887,-72.411"/>
</g>
<!-- Kiwi&#45;&#45;Apple -->
<g id="edge10" class="edge"><title>Kiwi&#45;&#45;Apple</title>
<path fill="none" stroke="black" d="M107.652,-107.748C112.304,-134.946 115.707,-188.431 114.546,-215.871"/>
</g>
<!-- Kiwi&#45;&#45;Banana -->
<g id="edge11" class="edge"><title>Kiwi&#45;&#45;Banana</title>
<path fill="none" stroke="black" d="M92.8021,-107.198C83.1153,-119.069 68.2143,-135.043 56.1075,-146.496"/>
</g>
<!-- Kiwi&#45;&#45;Citron -->
<g id="edge12" class="edge"><title>Kiwi&#45;&#45;Citron</title>
<path fill="none" stroke="black" d="M96.2068,-72.411C95.0067,-61.4141 94.9935,-47.0274 96.1673,-35.9562"/>
</g>
</g>
</svg>
