<?xml version="1.0" encoding="UTF-8" standalone="no"?>
<!DOCTYPE svg PUBLIC "-//W3C//DTD SVG 1.1//EN"
 "http://www.w3.org/Graphics/SVG/1.1/DTD/svg11.dtd">
<!-- Generated by graphviz version 2.38.0 (20140413.2041)
 -->
<!-- Title: %3 Pages: 1 -->
<svg width="105pt" height="188pt"
 viewBox="0.00 0.00 104.94 188.00" xmlns="http://www.w3.org/2000/svg" xmlns:xlink="http://www.w3.org/1999/xlink">
<g id="graph0" class="graph" transform="scale(1 1) rotate(0) translate(4 184)">
<title>%3</title>
<polygon fill="white" stroke="none" points="-4,4 -4,-184 100.944,-184 100.944,4 -4,4"/>
<!-- ucom -->
<g id="node1" class="node"><title>ucom</title>
<ellipse fill="none" stroke="black" cx="62.4971" cy="-162" rx="31.3957" ry="18"/>
<text text-anchor="middle" x="62.4971" y="-158.3" font-family="Times New Roman,serif" font-size="14.00">ucom</text>
</g>
<!-- G&#45;Jun -->
<g id="node2" class="node"><title>G&#45;Jun</title>
<ellipse fill="none" stroke="black" cx="32.4971" cy="-90" rx="32.4942" ry="18"/>
<text text-anchor="middle" x="32.4971" y="-86.3" font-family="Times New Roman,serif" font-size="14.00">G&#45;Jun</text>
</g>
<!-- ucom&#45;&#45;G&#45;Jun -->
<g id="edge1" class="edge"><title>ucom&#45;&#45;G&#45;Jun</title>
<path fill="none" stroke="black" d="M55.3875,-144.411C50.6746,-133.414 44.5089,-119.027 39.7641,-107.956"/>
</g>
<!-- Da&#45;Ya -->
<g id="node3" class="node"><title>Da&#45;Ya</title>
<ellipse fill="none" stroke="black" cx="62.4971" cy="-18" rx="34.394" ry="18"/>
<text text-anchor="middle" x="62.4971" y="-14.3" font-family="Times New Roman,serif" font-size="14.00">Da&#45;Ya</text>
</g>
<!-- ucom&#45;&#45;Da&#45;Ya -->
<g id="edge2" class="edge"><title>ucom&#45;&#45;Da&#45;Ya</title>
<path fill="none" stroke="black" d="M66.9614,-143.953C69.4322,-133.63 72.2493,-120.153 73.4971,-108 75.1314,-92.0837 75.1314,-87.9163 73.4971,-72 72.2493,-59.8472 69.4322,-46.3698 66.9614,-36.0469"/>
</g>
<!-- G&#45;Jun&#45;&#45;Da&#45;Ya -->
<g id="edge3" class="edge"><title>G&#45;Jun&#45;&#45;Da&#45;Ya</title>
<path fill="none" stroke="black" d="M39.6067,-72.411C44.3196,-61.4141 50.4854,-47.0274 55.2302,-35.9562"/>
</g>
</g>
</svg>
