<?xml version="1.0" encoding="UTF-8" standalone="no"?>
<!DOCTYPE svg PUBLIC "-//W3C//DTD SVG 1.1//EN"
 "http://www.w3.org/Graphics/SVG/1.1/DTD/svg11.dtd">
<!-- Generated by graphviz version 2.38.0 (20140413.2041)
 -->
<!-- Title: %3 Pages: 1 -->
<svg width="742pt" height="142pt"
 viewBox="0.00 0.00 742.00 142.00" xmlns="http://www.w3.org/2000/svg" xmlns:xlink="http://www.w3.org/1999/xlink">
<g id="graph0" class="graph" transform="scale(1 1) rotate(0) translate(4 138)">
<title>%3</title>
<polygon fill="#c0ffee" stroke="none" points="-4,4 -4,-138 738,-138 738,4 -4,4"/>
<text text-anchor="middle" x="367" y="-10.8" font-family="Times New Roman,serif" font-size="24.00" fill="#448800">computer school</text>
<!-- A -->
<g id="node1" class="node"><title>A</title>
<polygon fill="#ffc0ee" stroke="red" points="56,-83 3.55271e-015,-83 3.55271e-015,-47 56,-47 56,-83"/>
<text text-anchor="middle" x="28" y="-61.3" font-family="Microsoft YaHei Normal" font-size="14.00">ucom</text>
</g>
<!-- B -->
<g id="node2" class="node"><title>B</title>
<polygon fill="#ffc0ee" stroke="red" points="473,-122 419,-122 419,-86 473,-86 473,-122"/>
<text text-anchor="middle" x="446" y="-100.3" font-family="Microsoft YaHei Normal" font-size="14.00">巨將</text>
</g>
<!-- A&#45;&gt;B -->
<g id="edge1" class="edge"><title>A&#45;&gt;B</title>
<path fill="none" stroke="#002288" stroke-width="7" stroke-dasharray="1,5" d="M56.2949,-67.5589C128.939,-74.3693 327.029,-92.9403 408.876,-100.613"/>
<polygon fill="#002288" stroke="#002288" stroke-width="7" points="418.948,-101.558 408.256,-108.465 413.69,-104.078 408.711,-103.611 408.991,-100.624 409.272,-97.6372 414.25,-98.104 409.727,-92.7835 418.948,-101.558 418.948,-101.558"/>
<text text-anchor="middle" x="200.5" y="-98.8" font-family="Microsoft YaHei Normal" font-size="24.00">head quarter in Taipei</text>
</g>
<!-- C -->
<g id="node3" class="node"><title>C</title>
<polygon fill="#ffc0ee" stroke="red" points="734,-70 680,-70 680,-34 734,-34 734,-70"/>
<text text-anchor="middle" x="707" y="-48.3" font-family="Microsoft YaHei Normal" font-size="14.00">DaYa</text>
</g>
<!-- A&#45;&gt;C -->
<g id="edge2" class="edge"><title>A&#45;&gt;C</title>
<path fill="none" stroke="#002288" stroke-width="7" stroke-dasharray="1,5" d="M56.0395,-63.3979C110.632,-60.2526 237.942,-53.3704 345,-51 434.756,-49.0127 457.223,-50.7177 547,-51 589.038,-51.1322 637.326,-51.461 669.553,-51.7057"/>
<polygon fill="#002288" stroke="#002288" stroke-width="7" points="679.834,-51.785 669.774,-59.5825 674.811,-54.7463 669.811,-54.7077 669.835,-51.7078 669.858,-48.7078 674.858,-48.7465 669.895,-43.833 679.834,-51.785 679.834,-51.785"/>
<text text-anchor="middle" x="446" y="-57.8" font-family="Microsoft YaHei Normal" font-size="24.00">multimedia is hot</text>
</g>
<!-- B&#45;&gt;C -->
<g id="edge3" class="edge"><title>B&#45;&gt;C</title>
<path fill="none" stroke="#002288" stroke-width="7" stroke-dasharray="1,5" d="M473.215,-98.2923C497.107,-93.1269 533.387,-85.3749 565,-79 600.686,-71.8036 641.551,-64.0297 670.068,-58.6799"/>
<polygon fill="#002288" stroke="#002288" stroke-width="7" points="679.983,-56.8242 671.602,-66.4046 675.62,-60.6929 670.705,-61.6128 670.153,-58.664 669.601,-55.7152 674.516,-54.7953 668.704,-50.9234 679.983,-56.8242 679.983,-56.8242"/>
<text text-anchor="middle" x="613.5" y="-85.8" font-family="Microsoft YaHei Normal" font-size="24.00">競爭對手</text>
</g>
<!-- D -->
<g id="node4" class="node"><title>D</title>
<polygon fill="#ffc0ee" stroke="red" points="734,-134 680,-134 680,-98 734,-98 734,-134"/>
<text text-anchor="middle" x="707" y="-112.3" font-family="Microsoft YaHei Normal" font-size="14.00">D</text>
</g>
<!-- B&#45;&gt;D -->
<g id="edge4" class="edge"><title>B&#45;&gt;D</title>
<path fill="none" stroke="#002288" stroke-width="7" stroke-dasharray="1,5" d="M473.26,-105.217C519.701,-107.368 616.412,-111.849 669.378,-114.303"/>
<polygon fill="#002288" stroke="#002288" stroke-width="7" points="679.671,-114.78 669.317,-122.184 674.537,-117.545 669.543,-117.314 669.682,-114.317 669.82,-111.32 674.815,-111.552 670.046,-106.451 679.671,-114.78 679.671,-114.78"/>
</g>
</g>
</svg>
